PathFileType	4	(x/y/z)	S06_P20_T34
DataRate	CameraRate	NumFrames	NumMarkers	Units	OrigDataRate	OrigDataStartFrame	OrigNumFrames
240	240	10	51	mm	240	310	354
Frame#	Time	Sternum			R.Acromium			L.Acromium			Top.Head			R.ASIS			L.ASIS			R.PSIS			L.PSIS			R.Great.Tro			L.Great.Tro			R.Iliac.Crest			L.Iliac.Crest			V.Sacral			R.Thigh.Upper.Post			R.Thigh.Lower.Ant			R.Thigh.Lower.Post			R.Thigh.Upper.Ant			R.Knee.Lat			R.Knee.Med			R.Shank.Upper.Post			R.Shank.Lower.Ant			R.Shank.Lower.Post			R.Shank.Upper.Ant			R.Ankle.Lat			R.Ankle.Med			R.Heel.Upper			R.Heel.Med			R.Heel.Lat			R.Toe.Lat			R.Toe.Med			R.Toe.Tip			L.Thigh.Upper.Post			L.Thigh.Lower.Ant			L.Thigh.Lower.Post			L.Thigh.Upper.Ant			L.Knee.Lat			L.Knee.Med			L.Shank.Upper.Post			L.Shank.Lower.Ant			L.Shank.Lower.Post			L.Shank.Upper.Ant			L.Ankle.Lat			L.Ankle.Med			L.Heel.Upper			L.Heel.Med			L.Heel.Lat			L.Toe.Lat			L.Toe.Med			L.Toe.Tip			Cervical.Spine			Back			
		X1	Y1	Z1	X2	Y2	Z2	X3	Y3	Z3	X4	Y4	Z4	X5	Y5	Z5	X6	Y6	Z6	X7	Y7	Z7	X8	Y8	Z8	X9	Y9	Z9	X10	Y10	Z10	X11	Y11	Z11	X12	Y12	Z12	X13	Y13	Z13	X14	Y14	Z14	X15	Y15	Z15	X16	Y16	Z16	X17	Y17	Z17	X18	Y18	Z18	X19	Y19	Z19	X20	Y20	Z20	X21	Y21	Z21	X22	Y22	Z22	X23	Y23	Z23	X24	Y24	Z24	X25	Y25	Z25	X26	Y26	Z26	X27	Y27	Z27	X28	Y28	Z28	X29	Y29	Z29	X30	Y30	Z30	X31	Y31	Z31	X32	Y32	Z32	X33	Y33	Z33	X34	Y34	Z34	X35	Y35	Z35	X36	Y36	Z36	X37	Y37	Z37	X38	Y38	Z38	X39	Y39	Z39	X40	Y40	Z40	X41	Y41	Z41	X42	Y42	Z42	X43	Y43	Z43	X44	Y44	Z44	X45	Y45	Z45	X46	Y46	Z46	X47	Y47	Z47	X48	Y48	Z48	X49	Y49	Z49	X50	Y50	Z50	X51	Y51	Z51	

310	1.2875	371.04	1283.4	337.13	254.8	1492.8	509.08	248.17	1497.1	156.13	282.98	1813.5	335	305.84	1051.8	460	314.57	1042.9	207.93	NaN	NaN	NaN	113.62	1082.1	284.65	253.54	986.04	512.01	217.13	982.11	153.12	225.79	1129.8	489.68	250.36	1121.1	170.7	98.033	1045.6	327.47	332.68	746.71	503.56	409.58	687.58	466.55	347.62	660.34	482.25	394.88	776.64	480.66	405.08	564.43	468.79	406.28	567.24	340.17	409.57	334.72	466.62	483.55	286.31	452.48	423.7	258.89	451.97	469.53	360.42	466.04	493.46	130.84	432.4	515.17	143.81	346.76	445.82	73.183	376.69	467.54	48.697	346.81	461.49	44.956	411.03	627.1	90.255	467.83	657.36	113.97	353.89	710.19	147.01	405.2	253.05	715.67	177.96	291.54	633.07	240.06	225.22	630.66	196.58	314.46	722.31	216.04	196.69	536.33	215.59	219.78	542.94	335.27	98.771	323.75	224.87	146.42	248.92	233.26	75.868	255.88	243.35	164.79	316.75	220.36	84.692	110.62	247.57	86.973	113.11	338.52	0.54588	76.312	285.34	2.2753	47.684	316.62	7.1705	52.112	254.81	187.47	44.351	225.68	201.92	40.157	346.62	277.33	49.7	296.94	195.14	1548.4	334.72	130.09	1280.1	327.19
311	1.2917	376.76	1282.9	337.32	260.34	1492.2	509.29	253.81	1496.6	156.31	288.43	1813	335.36	311.63	1051.3	460.29	320.41	1042.2	208.18	NaN	NaN	NaN	119.4	1081.5	285.02	259.05	985.5	512.38	222.87	981.46	153.55	231.57	1129.3	489.99	256.28	1120.4	170.98	103.86	1045	327.9	336.85	745.48	503.96	413.56	686.14	466.85	351.39	659.15	482.21	399.23	775.22	481.38	408.89	563.34	468.6	410.02	566.27	339.88	416.42	333.59	466.23	491.1	286.17	452.06	431.58	257.89	451.47	476	360.09	465.6	503.46	130.43	431.81	524.55	144.19	346.14	456.44	71.966	376.3	478.54	48.006	346.17	472.98	43.834	410.44	638.24	91.941	466.25	667.24	117.05	352.17	719.84	150.79	403.32	257.47	715.17	178.39	295.66	632.26	240.32	229.24	630.27	196.94	319.02	721.44	216.32	200.16	535.97	215.88	223.3	542.46	335.58	100.75	324.06	225.12	147.87	248.89	233.52	77.375	256.36	243.62	166.72	316.59	220.61	85.048	111	247.84	87.359	113.43	338.82	0.67278	76.668	285.7	2.3733	47.982	316.91	7.2321	52.529	255.09	187.52	44.39	225.84	202.06	39.987	346.74	277.52	49.256	297.02	200.71	1547.8	334.91	135.82	1279.5	327.36
312	1.2958	382.49	1282.3	337.54	265.88	1491.6	509.5	259.46	1496.1	156.5	293.88	1812.5	335.71	317.4	1050.7	460.61	326.26	1041.5	208.46	NaN	NaN	NaN	125.18	1080.9	285.37	264.55	984.94	512.77	228.63	980.8	153.98	237.32	1128.8	490.32	262.23	1119.7	171.27	109.69	1044.5	328.31	341.09	744.27	504.29	417.64	684.76	467.11	355.27	658	482.1	403.66	773.84	482.09	412.82	562.31	468.37	413.92	565.39	339.58	423.07	332.54	465.87	498.33	285.99	451.6	439.11	256.98	451	482.29	359.73	465.12	512.82	130.03	431.22	533.3	144.49	345.52	466.36	70.844	375.92	488.78	47.357	345.56	483.68	42.819	409.88	648.61	93.483	464.71	676.4	119.81	350.5	728.81	154.21	401.46	262	714.66	178.82	299.9	631.45	240.59	233.39	629.87	197.31	323.67	720.59	216.61	203.75	535.61	216.16	226.96	541.96	335.89	102.8	324.4	225.39	149.38	248.89	233.78	78.949	256.88	243.9	168.73	316.44	220.87	85.426	111.42	248.11	87.776	113.8	339.14	0.81811	77.09	286.08	2.4818	48.347	317.23	7.3	53.008	255.4	187.58	44.428	226.02	202.21	39.831	346.86	277.72	48.813	297.09	206.27	1547.3	335.11	141.54	1278.8	327.56
313	1.3	388.2	1281.8	337.79	271.42	1491	509.73	265.1	1495.6	156.71	299.35	1812	336.07	323.15	1050.1	460.95	332.13	1040.8	208.77	NaN	NaN	NaN	130.96	1080.2	285.71	270.05	984.37	513.17	234.43	980.13	154.38	243.06	1128.3	490.65	268.2	1119	171.56	115.51	1044	328.71	345.41	743.1	504.55	421.84	683.45	467.31	359.27	656.89	481.92	408.17	772.52	482.77	416.91	561.32	468.12	417.99	564.59	339.25	429.51	331.57	465.52	505.24	285.76	451.11	446.28	256.12	450.56	488.41	359.34	464.6	521.53	129.63	430.63	541.41	144.69	344.88	475.55	69.802	375.52	498.22	46.73	344.96	493.58	41.89	409.33	658.22	94.841	463.2	684.84	122.24	348.86	737.1	157.22	399.62	266.63	714.15	179.26	304.27	630.65	240.87	237.68	629.45	197.68	328.41	719.75	216.93	207.49	535.23	216.44	230.75	541.47	336.2	104.95	324.77	225.67	150.95	248.91	234.03	80.597	257.45	244.19	170.82	316.31	221.13	85.829	111.89	248.39	88.229	114.23	339.46	0.98698	77.591	286.47	2.6034	48.793	317.57	7.3776	53.56	255.72	187.64	44.466	226.2	202.35	39.689	346.99	277.91	48.373	297.17	211.84	1546.7	335.32	147.27	1278.2	327.76
314	1.3042	393.92	1281.3	338.06	276.97	1490.5	509.97	270.75	1495.1	156.93	304.81	1811.4	336.42	328.9	1049.5	461.32	338	1040.2	209.11	NaN	NaN	NaN	136.73	1079.5	286.03	275.55	983.79	513.57	240.25	979.45	154.77	248.77	1127.8	490.99	274.18	1118.3	171.87	121.33	1043.4	329.09	349.83	741.97	504.75	426.17	682.22	467.48	363.42	655.83	481.68	412.78	771.27	483.43	421.15	560.4	467.84	422.24	563.87	338.93	435.74	330.66	465.19	511.84	285.46	450.57	453.1	255.32	450.14	494.37	358.91	464.04	529.58	129.22	430.03	548.89	144.78	344.22	484	68.827	375.11	506.88	46.111	344.37	502.67	41.029	408.79	667.05	95.98	461.72	692.57	124.28	347.26	744.71	159.79	397.82	271.37	713.64	179.7	308.78	629.86	241.16	242.11	629.02	198.04	333.27	718.93	217.25	211.37	534.85	216.71	234.7	540.96	336.5	107.2	325.19	225.96	152.59	248.95	234.29	82.325	258.06	244.5	173	316.19	221.39	86.264	112.42	248.67	88.722	114.72	339.8	1.1853	78.182	286.88	2.7413	49.334	317.92	7.4687	54.197	256.06	187.71	44.502	226.38	202.51	39.565	347.12	278.11	47.939	297.24	217.41	1546.2	335.54	153	1277.6	327.98
315	1.3083	399.63	1280.8	338.37	282.51	1489.9	510.22	276.4	1494.6	157.17	310.29	1810.9	336.77	334.63	1049	461.72	343.88	1039.5	209.48	NaN	NaN	NaN	142.51	1078.8	286.33	281.05	983.21	513.98	246.1	978.78	155.15	254.46	1127.3	491.33	280.17	1117.6	172.19	127.15	1042.8	329.44	354.36	740.88	504.89	430.63	681.06	467.6	367.7	654.82	481.39	417.48	770.07	484.06	425.55	559.52	467.55	426.68	563.23	338.6	441.76	329.81	464.87	518.11	285.09	450	459.57	254.55	449.74	500.16	358.42	463.46	536.99	128.77	429.42	555.76	144.74	343.55	491.73	67.91	374.68	514.74	45.488	343.78	510.95	40.219	408.24	675.12	96.87	460.27	699.6	125.93	345.7	751.68	161.89	396.04	276.22	713.12	180.15	313.44	629.09	241.45	246.7	628.56	198.4	338.23	718.14	217.59	215.42	534.46	216.98	238.82	540.44	336.8	109.56	325.65	226.25	154.31	249.03	234.54	84.14	258.73	244.81	175.28	316.08	221.64	86.734	113	248.96	89.261	115.28	340.15	1.4197	78.878	287.3	2.8993	49.984	318.29	7.5781	54.931	256.42	187.78	44.536	226.57	202.67	39.46	347.25	278.3	47.511	297.32	222.98	1545.6	335.78	158.73	1276.9	328.22
316	1.3125	405.34	1280.2	338.71	288.06	1489.3	510.49	282.05	1494.1	157.43	315.77	1810.4	337.12	340.35	1048.4	462.15	349.76	1038.8	209.87	NaN	NaN	NaN	148.28	1078.1	286.61	286.56	982.62	514.39	251.97	978.1	155.5	260.13	1126.7	491.69	286.17	1116.9	172.52	132.95	1042.2	329.77	359	739.84	504.96	435.23	679.98	467.67	372.14	653.87	481.06	422.3	768.94	484.65	430.12	558.71	467.24	431.3	562.65	338.28	447.57	329	464.56	524.08	284.64	449.4	465.67	253.81	449.36	505.78	357.87	462.85	543.76	128.26	428.8	562.01	144.56	342.85	498.72	67.043	374.23	521.83	44.851	343.19	518.42	39.448	407.7	682.44	97.487	458.84	705.95	127.17	344.16	758.02	163.52	394.29	281.19	712.6	180.58	318.26	628.33	241.73	251.44	628.1	198.75	343.3	717.37	217.92	219.63	534.05	217.24	243.12	539.92	337.08	112.03	326.15	226.53	156.11	249.13	234.77	86.049	259.45	245.11	177.66	316	221.88	87.248	113.65	249.23	89.853	115.91	340.49	1.6975	79.694	287.72	3.082	50.762	318.66	7.7114	55.775	256.78	187.86	44.567	226.75	202.83	39.375	347.37	278.49	47.092	297.39	228.56	1545	336.03	164.46	1276.3	328.46
317	1.3167	411.04	1279.7	339.08	293.61	1488.7	510.77	287.71	1493.6	157.7	321.27	1809.8	337.47	346.05	1047.8	462.6	355.64	1038.1	210.29	NaN	NaN	NaN	154.06	1077.4	286.87	292.07	982.04	514.8	257.86	977.43	155.84	265.79	1126.2	492.05	292.17	1116.2	172.86	138.75	1041.6	330.07	363.76	738.84	504.98	439.97	678.97	467.71	376.74	652.96	480.69	427.23	767.88	485.19	434.84	557.93	466.93	436.1	562.14	337.97	453.16	328.22	464.25	529.73	284.09	448.77	471.42	253.08	448.98	511.23	357.25	462.21	549.92	127.69	428.18	567.68	144.24	342.14	505.01	66.222	373.76	528.14	44.196	342.61	525.09	38.705	407.16	689.04	97.813	457.43	711.65	127.99	342.66	763.75	164.65	392.57	286.29	712.08	181	323.23	627.6	242	256.35	627.61	199.08	348.49	716.63	218.25	224.03	533.64	217.47	247.61	539.38	337.33	114.62	326.71	226.81	158.01	249.28	234.98	88.063	260.23	245.41	180.16	315.94	222.09	87.812	114.37	249.5	90.505	116.63	340.82	2.0272	80.643	288.14	3.2948	51.683	319.03	7.8752	56.741	257.14	187.94	44.595	226.94	203	39.315	347.5	278.69	46.683	297.46	234.14	1544.5	336.29	170.18	1275.7	328.72
318	1.3208	416.75	1279.1	339.48	299.16	1488.1	511.07	293.38	1493.1	157.99	326.77	1809.3	337.82	351.76	1047.2	463.09	361.53	1037.5	210.74	NaN	NaN	NaN	159.85	1076.7	287.12	297.6	981.45	515.22	263.78	976.78	156.16	271.42	1125.6	492.42	298.17	1115.5	173.21	144.55	1041	330.36	368.64	737.91	504.96	444.85	678.03	467.71	381.49	652.12	480.3	432.28	766.88	485.7	439.72	557.21	466.62	441.08	561.68	337.68	458.53	327.47	463.93	535.08	283.44	448.12	476.83	252.35	448.6	516.51	356.56	461.57	555.47	127.06	427.54	572.78	143.77	341.41	510.61	65.445	373.27	533.72	43.52	342.02	530.99	37.986	406.61	694.95	97.842	456.03	716.72	128.4	341.18	768.92	165.29	390.87	291.51	711.56	181.41	328.37	626.88	242.26	261.43	627.11	199.4	353.8	715.91	218.56	228.61	533.21	217.68	252.32	538.82	337.56	117.35	327.31	227.07	160	249.46	235.16	90.191	261.09	245.7	182.78	315.9	222.28	88.434	115.16	249.75	91.226	117.44	341.13	2.4178	81.741	288.53	3.5443	52.765	319.39	8.0771	57.843	257.5	188.04	44.62	227.12	203.17	39.279	347.62	278.88	46.285	297.52	239.72	1543.9	336.56	175.91	1275.1	328.99
319	1.325	422.45	1278.6	339.92	304.7	1487.5	511.39	299.05	1492.6	158.31	332.28	1808.8	338.17	357.45	1046.7	463.6	367.42	1036.8	211.21	NaN	NaN	NaN	165.63	1076	287.36	303.14	980.86	515.63	269.72	976.13	156.48	277.04	1125.1	492.8	304.17	1114.8	173.57	150.34	1040.4	330.62	373.65	737.03	504.89	449.88	677.17	467.67	386.39	651.33	479.9	437.45	765.95	486.15	444.75	556.52	466.3	446.22	561.26	337.42	463.69	326.74	463.61	540.13	282.69	447.45	481.9	251.62	448.23	521.62	355.8	460.92	560.46	126.36	426.89	577.36	143.17	340.66	515.56	64.714	372.77	538.58	42.827	341.44	536.15	37.289	406.06	700.2	97.572	454.65	721.21	128.4	339.74	773.56	165.45	389.19	296.87	711.04	181.8	333.7	626.19	242.48	266.7	626.6	199.69	359.24	715.24	218.86	233.41	532.77	217.86	257.25	538.24	337.75	120.23	327.96	227.31	162.1	249.69	235.31	92.444	262.01	245.95	185.53	315.9	222.44	89.126	116.03	249.97	92.027	118.34	341.41	2.8794	83.003	288.9	3.8383	54.025	319.74	8.326	59.095	257.83	188.16	44.641	227.29	203.35	39.271	347.74	279.06	45.898	297.58	245.31	1543.4	336.85	181.63	1274.4	329.27
